<?xml version="1.0" encoding="UTF-8"?>
<svg width="15px" height="12px" viewBox="0 0 15 12" version="1.1" xmlns="http://www.w3.org/2000/svg" xmlns:xlink="http://www.w3.org/1999/xlink">
    <!-- Generator: Sketch 63.1 (92452) - https://sketch.com -->
    <title>Path</title>
    <desc>Created with Sketch.</desc>
    <g id="Symbols" stroke="none" stroke-width="1" fill="none" fill-rule="evenodd">
        <g id="case-study-button" transform="translate(0.000000, -4.000000)" fill="#59A5D8" fill-rule="nonzero">
            <path d="M0.743412379,10.743424 L12.3302377,10.743424 L8.34257371,14.731088 C8.05227118,15.0213905 8.05227118,15.4921564 8.34238786,15.7822731 C8.63269039,16.0725756 9.10364214,16.0725756 9.39394467,15.7822731 L14.6504277,10.5256042 C14.6849964,10.4910355 14.715848,10.4529356 14.7429826,10.4124196 C14.7554347,10.3936485 14.7641698,10.3733905 14.7749493,10.3538759 C14.7872156,10.3308301 14.8013405,10.3088995 14.8111907,10.2845527 C14.8217843,10.2594625 14.8277316,10.2334431 14.8351657,10.2074237 C14.8412989,10.186794 14.8492906,10.1670936 14.8535652,10.1459063 C14.8632295,10.0975845 14.8682476,10.048891 14.8682476,10.0000116 C14.8678759,9.95020299 14.8630437,9.90188118 14.8535652,9.85448865 C14.8491047,9.83218627 14.8407413,9.81155658 14.8342365,9.78962592 C14.8269882,9.76490745 14.8214126,9.73981729 14.8113765,9.71584224 C14.800597,9.69000866 14.7861005,9.66659117 14.7727191,9.64224441 C14.762683,9.62403081 14.7546913,9.6054455 14.7431684,9.58797531 C14.7160339,9.54690177 14.6848106,9.50861604 14.650056,9.47386151 L9.39375882,4.21775014 C9.10345628,3.9274476 8.63269039,3.9274476 8.34238786,4.21756428 C8.05208533,4.50786682 8.05208533,4.97863271 8.34238786,5.26912109 L12.3300519,9.25659924 L0.743412379,9.25659924 C0.332862893,9.25659924 0,9.58946213 0,10.0000116 C0,10.4105611 0.332862893,10.743424 0.743412379,10.743424 Z" id="Path"></path>
        </g>
    </g>
</svg>