<?xml version="1.0" encoding="UTF-8"?>
<svg width="100px" height="100px" viewBox="0 0 100 100" version="1.1" xmlns="http://www.w3.org/2000/svg" xmlns:xlink="http://www.w3.org/1999/xlink">
    <!-- Generator: Sketch 63.1 (92452) - https://sketch.com -->
    <title>design</title>
    <desc>Created with Sketch.</desc>
    <g id="Site" stroke="none" stroke-width="1" fill="none" fill-rule="evenodd">
        <g id="About-me" transform="translate(-834.000000, -825.000000)" fill="#F0F1F5" fill-rule="nonzero">
            <g id="Services" transform="translate(80.000000, 751.000000)">
                <g id="design" transform="translate(654.000000, 0.000000)">
                    <g id="Group-4" transform="translate(30.000000, 74.000000)">
                        <g id="design" transform="translate(70.000000, 0.000000)">
                            <path d="M3.03030303,3.03030303 L3.03030303,22.7272727 C3.03030303,23.5640677 2.35194697,24.2424242 1.51515152,24.2424242 C0.678356061,24.2424242 0,23.5640677 0,22.7272727 L0,1.51515152 C0,0.678356515 0.678356061,0 1.51515152,0 L22.7272727,0 C23.5640682,0 24.2424242,0.678356515 24.2424242,1.51515152 C24.2424242,2.35194652 23.5640682,3.03030303 22.7272727,3.03030303 L3.03030303,3.03030303 Z M96.969697,3.03030303 L77.2727273,3.03030303 C76.4359318,3.03030303 75.7575758,2.35194652 75.7575758,1.51515152 C75.7575758,0.678356515 76.4359318,0 77.2727273,0 L98.4848485,0 C99.3216439,0 100,0.678356515 100,1.51515152 L100,22.7272727 C100,23.5640677 99.3216439,24.2424242 98.4848485,24.2424242 C97.648053,24.2424242 96.969697,23.5640677 96.969697,22.7272727 L96.969697,3.03030303 Z M3.03030303,96.969697 L22.7272727,96.969697 C23.5640682,96.969697 24.2424242,97.648053 24.2424242,98.4848485 C24.2424242,99.3216439 23.5640682,100 22.7272727,100 L1.51515152,100 C0.678356061,100 0,99.3216439 0,98.4848485 L0,77.2727273 C0,76.4359318 0.678356061,75.7575758 1.51515152,75.7575758 C2.35194697,75.7575758 3.03030303,76.4359318 3.03030303,77.2727273 L3.03030303,96.969697 Z M96.969697,96.969697 L96.969697,77.2727273 C96.969697,76.4359318 97.648053,75.7575758 98.4848485,75.7575758 C99.3216439,75.7575758 100,76.4359318 100,77.2727273 L100,98.4848485 C100,99.3216439 99.3216439,100 98.4848485,100 L77.2727273,100 C76.4359318,100 75.7575758,99.3216439 75.7575758,98.4848485 C75.7575758,97.648053 76.4359318,96.969697 77.2727273,96.969697 L96.969697,96.969697 Z" id="Shape"></path>
                            <path d="M51.312403,26.515572 L74.0396758,65.9095121 C74.6224258,66.9196121 73.8934212,68.1818182 72.7272727,68.1818182 L27.2727273,68.1818182 C26.1065788,68.1818182 25.3775742,66.9196121 25.9603242,65.9095121 L48.687597,26.515572 C49.2706712,25.5049103 50.7293288,25.5049103 51.312403,26.515572 Z M50,30.3047133 L29.8960758,65.1515152 L70.1039242,65.1515152 L50,30.3047133 Z" id="Combined-Shape"></path>
                        </g>
                    </g>
                </g>
            </g>
        </g>
    </g>
</svg>