<?xml version="1.0" encoding="UTF-8"?>
<svg width="100px" height="102px" viewBox="0 0 100 102" version="1.1" xmlns="http://www.w3.org/2000/svg" xmlns:xlink="http://www.w3.org/1999/xlink">
    <!-- Generator: Sketch 63.1 (92452) - https://sketch.com -->
    <title>dev</title>
    <desc>Created with Sketch.</desc>
    <g id="Site" stroke="none" stroke-width="1" fill="none" fill-rule="evenodd">
        <g id="About-me" transform="translate(-1161.000000, -824.000000)" fill="#F0F1F5" fill-rule="nonzero">
            <g id="Services" transform="translate(80.000000, 751.000000)">
                <g id="dev" transform="translate(981.000000, 0.000000)">
                    <g id="Group-5" transform="translate(30.000000, 73.000000)">
                        <g id="dev" transform="translate(70.000000, 0.000000)">
                            <path d="M20.3332382,86.4561462 C28.2320544,94.2122565 38.8635068,98.6592461 50.2118644,98.6592461 C56.8677331,98.6592461 63.3024398,97.136512 69.1314423,94.2496529 C69.8841227,93.8768819 70.797227,94.1833615 71.1709159,94.9341933 C71.5446048,95.6850266 71.2373705,96.5958867 70.4846901,96.9686592 C64.2374502,100.062654 57.3399057,101.694915 50.2118644,101.694915 C37.8014954,101.694915 26.1848361,96.7272158 17.6727321,88.0949385 C12.0375124,90.6450296 5.27362887,88.5587448 2.11509567,83.1014419 C-1.2462676,77.2936893 0.748514349,69.8673453 6.57056633,66.5142378 C12.3926183,63.1611303 19.8372469,65.1510129 23.1986102,70.9587655 C26.2327473,76.2011369 24.902813,82.7623 20.3332382,86.4561462 Z M20.5631705,72.4766001 C18.0421484,68.1207852 12.4586773,66.6283729 8.09213798,69.1432047 C3.72559861,71.6580349 2.22951177,77.2277926 4.75053536,81.5836074 C7.27155743,85.9394222 12.8550285,87.4318346 17.2215679,84.9170028 C21.5881072,82.4021725 23.0841941,76.8324149 20.5631705,72.4766001 Z M38.4545646,15.2989436 C21.744925,20.0716028 9.42980183,34.680554 7.79417621,52.1578012 C7.71606481,52.9924478 6.97446144,53.6058973 6.13775984,53.5279777 C5.30105672,53.4500582 4.6860968,52.7102762 4.7642082,51.8756296 C6.53089896,32.997916 19.9177502,17.2492426 38.0398664,12.2619342 C38.0394829,12.2222262 38.0392912,12.1824741 38.0392912,12.1426764 C38.0392912,5.43646142 43.4891379,0 50.2118644,0 C56.9345909,0 62.3844376,5.43646142 62.3844376,12.1426764 C62.3844376,18.8488915 56.9345909,24.2853529 50.2118644,24.2853529 C44.5835587,24.2853529 39.8474311,20.4748626 38.4545646,15.2989436 Z M50.2118644,21.2496838 C55.2539086,21.2496838 59.3412943,17.172337 59.3412943,12.1426764 C59.3412943,7.11301594 55.2539086,3.03566911 50.2118644,3.03566911 C45.1698203,3.03566911 41.0824345,7.11301594 41.0824345,12.1426764 C41.0824345,17.172337 45.1698203,21.2496838 50.2118644,21.2496838 Z M91.7703941,65.5606264 C92.4627701,62.5014521 92.8158706,59.3545059 92.8158706,56.1598786 C92.8158706,41.8908252 85.7151826,28.8230362 74.0957357,20.9614758 C73.4002709,20.490935 73.2188753,19.5470832 73.6905762,18.8533266 C74.1622755,18.1595699 75.1084512,17.9786198 75.8039159,18.4491622 C88.249698,26.8698108 95.8590139,40.8736529 95.8590139,56.1598786 C95.8590139,59.8341902 95.4224095,63.451996 94.567373,66.9585323 C99.8335416,70.4891945 101.528617,77.5379666 98.3086331,83.1014419 C94.9472699,88.9091945 87.5026413,90.8990772 81.6805893,87.5459696 C75.8585373,84.1928621 73.8637554,76.7665181 77.2251186,70.9587655 C80.1965442,65.8247448 86.3588241,63.6741826 91.7703941,65.5606264 Z M79.8605583,72.4766001 C77.3395347,76.8324149 78.8356216,82.4021725 83.2021609,84.9170028 C87.5687003,87.4318346 93.1521714,85.9394222 95.6731935,81.5836074 C98.194217,77.2277926 96.6981302,71.6580349 92.3315908,69.1432047 C87.9650515,66.6283729 82.3815804,68.1207852 79.8605583,72.4766001 Z" id="Shape"></path>
                        </g>
                    </g>
                </g>
            </g>
        </g>
    </g>
</svg>