<?xml version="1.0" encoding="UTF-8"?>
<svg width="33px" height="24px" viewBox="0 0 33 24" version="1.1" xmlns="http://www.w3.org/2000/svg" xmlns:xlink="http://www.w3.org/1999/xlink">
    <!-- Generator: Sketch 63.1 (92452) - https://sketch.com -->
    <title>menu-icon</title>
    <desc>Created with Sketch.</desc>
    <g id="Site" stroke="none" stroke-width="1" fill="none" fill-rule="evenodd">
        <g id="Homepage" transform="translate(-1357.000000, -64.000000)" fill="#133C55" fill-rule="nonzero">
            <g id="Navigation/Header">
                <g id="menu-icon" transform="translate(1357.000000, 64.000000)">
                    <path d="M0.05,11.95 L0.05,11.95 C0.05,10.6 1.15,9.5 2.5,9.5 L30.45,9.5 C31.8,9.5 32.9,10.6 32.9,11.95 L32.9,11.95 C32.9,13.3 31.8,14.4 30.45,14.4 L2.55,14.4 C1.15,14.45 0.05,13.35 0.05,11.95 Z" id="Path"></path>
                    <path d="M0.15,2.85 L0.15,2.85 C0.15,1.5 1.25,0.4 2.6,0.4 L14,0.4 C15.35,0.4 16.45,1.5 16.45,2.85 L16.45,2.85 C16.45,4.2 15.35,5.3 14,5.3 L2.6,5.3 C1.25,5.35 0.15,4.25 0.15,2.85 Z" id="Path"></path>
                    <path d="M21.5,21.15 L21.5,21.15 C21.5,19.8 20.4,18.7 19.05,18.7 L2.6,18.7 C1.25,18.7 0.15,19.8 0.15,21.15 L0.15,21.15 C0.15,22.5 1.25,23.6 2.6,23.6 L19.05,23.6 C20.4,23.6 21.5,22.5 21.5,21.15 Z" id="Path"></path>
                </g>
            </g>
        </g>
    </g>
</svg>
