<?xml version="1.0" encoding="UTF-8"?>
<svg width="132px" height="100px" viewBox="0 0 132 100" version="1.1" xmlns="http://www.w3.org/2000/svg" xmlns:xlink="http://www.w3.org/1999/xlink">
    <!-- Generator: Sketch 63.1 (92452) - https://sketch.com -->
    <title>product-strategy</title>
    <desc>Created with Sketch.</desc>
    <g id="Site" stroke="none" stroke-width="1" fill="none" fill-rule="evenodd">
        <g id="About-me" transform="translate(-164.000000, -825.000000)" fill="#F0F1F5" fill-rule="nonzero">
            <g id="Services" transform="translate(80.000000, 751.000000)">
                <g id="strategy">
                    <g id="Group-2" transform="translate(30.000000, 74.000000)">
                        <g id="product-strategy" transform="translate(54.000000, 0.000000)">
                            <path d="M97.287886,60.103638 L104.184082,45.161884 C104.899086,43.612706 107.100914,43.612706 107.815918,45.161884 L131.815918,97.161884 C132.427568,98.487124 131.459582,100 130,100 L2,100 C0.540418,100 -0.427568,98.487124 0.184082,97.161884 L24.184082,45.161884 C24.899086,43.612706 27.100914,43.612706 27.815918,45.161884 L34.712114,60.103638 L64.211146,1.105572 C64.948194,-0.368524 67.051806,-0.368524 67.788854,1.105572 L97.287886,60.103638 Z M80.720336,96 L95.141262,64.75466 L66,6.472136 L36.858738,64.75466 L51.279664,96 L80.720336,96 Z M26,50.772608 L5.125818,96 L46.874182,96 L26,50.772608 Z M85.125818,96 L126.874182,96 L106,50.772608 L85.125818,96 Z" id="Shape"></path>
                        </g>
                    </g>
                </g>
            </g>
        </g>
    </g>
</svg>