<?xml version="1.0" encoding="UTF-8"?>
<svg width="100px" height="100px" viewBox="0 0 100 100" version="1.1" xmlns="http://www.w3.org/2000/svg" xmlns:xlink="http://www.w3.org/1999/xlink">
    <!-- Generator: Sketch 63.1 (92452) - https://sketch.com -->
    <title>pm-4</title>
    <desc>Created with Sketch.</desc>
    <g id="Site" stroke="none" stroke-width="1" fill="none" fill-rule="evenodd">
        <g id="About-me" transform="translate(-507.000000, -825.000000)" fill="#F0F1F5" fill-rule="nonzero">
            <g id="Services" transform="translate(80.000000, 751.000000)">
                <g id="pm" transform="translate(327.000000, 0.000000)">
                    <g id="Group-3" transform="translate(30.000000, 74.000000)">
                        <g id="pm-4" transform="translate(70.000000, 0.000000)">
                            <path d="M75.7575758,78.7878788 L51.5151515,78.7878788 L51.5151515,98.4848485 C51.5151515,99.3216439 50.8367955,100 50,100 C49.1632045,100 48.4848485,99.3216439 48.4848485,98.4848485 L48.4848485,78.7878788 L24.2424242,78.7878788 L24.2424242,98.4848485 C24.2424242,99.3216439 23.5640682,100 22.7272727,100 C21.8904773,100 21.2121212,99.3216439 21.2121212,98.4848485 L21.2121212,78.7878788 L1.51515152,78.7878788 C0.678356061,78.7878788 0,78.1095227 0,77.2727273 C0,76.4359318 0.678356061,75.7575758 1.51515152,75.7575758 L21.2121212,75.7575758 L21.2121212,51.5151515 L1.51515152,51.5151515 C0.678356061,51.5151515 0,50.8367955 0,50 C0,49.1632045 0.678356061,48.4848485 1.51515152,48.4848485 L21.2121212,48.4848485 L21.2121212,24.2424242 L1.51515152,24.2424242 C0.678356061,24.2424242 0,23.5640682 0,22.7272727 C0,21.8904773 0.678356061,21.2121212 1.51515152,21.2121212 L21.2121212,21.2121212 L21.2121212,1.51515152 C21.2121212,0.678356061 21.8904773,0 22.7272727,0 C23.5640682,0 24.2424242,0.678356061 24.2424242,1.51515152 L24.2424242,21.2121212 L48.4848485,21.2121212 L48.4848485,1.51515152 C48.4848485,0.678356061 49.1632045,0 50,0 C50.8367955,0 51.5151515,0.678356061 51.5151515,1.51515152 L51.5151515,21.2121212 L75.7575758,21.2121212 L75.7575758,1.51515152 C75.7575758,0.678356061 76.4359318,0 77.2727273,0 C78.1095227,0 78.7878788,0.678356061 78.7878788,1.51515152 L78.7878788,21.2121212 L98.4848485,21.2121212 C99.3216439,21.2121212 100,21.8904773 100,22.7272727 C100,23.5640682 99.3216439,24.2424242 98.4848485,24.2424242 L78.7878788,24.2424242 L78.7878788,48.4848485 L98.4848485,48.4848485 C99.3216439,48.4848485 100,49.1632045 100,50 C100,50.8367955 99.3216439,51.5151515 98.4848485,51.5151515 L78.7878788,51.5151515 L78.7878788,75.7575758 L98.4848485,75.7575758 C99.3216439,75.7575758 100,76.4359318 100,77.2727273 C100,78.1095227 99.3216439,78.7878788 98.4848485,78.7878788 L78.7878788,78.7878788 L78.7878788,98.4848485 C78.7878788,99.3216439 78.1095227,100 77.2727273,100 C76.4359318,100 75.7575758,99.3216439 75.7575758,98.4848485 L75.7575758,78.7878788 Z M75.7575758,75.7575758 L75.7575758,24.2424242 L24.2424242,24.2424242 L24.2424242,75.7575758 L75.7575758,75.7575758 Z" id="Shape"></path>
                            <path d="M60.6060606,37.8787879 C61.4428561,37.8787879 62.1212121,38.5571439 62.1212121,39.3939394 L62.1212121,60.6060606 C62.1212121,61.4428561 61.4428561,62.1212121 60.6060606,62.1212121 L39.3939394,62.1212121 C38.5571439,62.1212121 37.8787879,61.4428561 37.8787879,60.6060606 L37.8787879,39.3939394 C37.8787879,38.5571439 38.5571439,37.8787879 39.3939394,37.8787879 L60.6060606,37.8787879 Z M59.0909091,40.9090909 L40.9090909,40.9090909 L40.9090909,59.0909091 L59.0909091,59.0909091 L59.0909091,40.9090909 Z" id="Combined-Shape"></path>
                        </g>
                    </g>
                </g>
            </g>
        </g>
    </g>
</svg>