<?xml version="1.0" encoding="UTF-8"?>
<svg width="20px" height="16px" viewBox="0 0 20 16" version="1.1" xmlns="http://www.w3.org/2000/svg" xmlns:xlink="http://www.w3.org/1999/xlink">
  <g id="Site" stroke="none" stroke-width="1" fill="none" fill-rule="evenodd">
    <g id="About-me" transform="translate(-565.000000, -1405.000000)" stroke="#59A5D8">
      <g id="Content" transform="translate(330.000000, 1221.000000)">
        <g id="Profile-info">
          <g id="father" transform="translate(236.000000, 184.000000)">
            <g id="baby" transform="translate(0.000000, 1.000000)">
              <path d="M16.1121681,6.03870861 C15.5353057,2.67663825 12.5905688,0.117352655 9.04462038,0.117352655 C5.48526067,0.117352655 2.53166879,2.69603405 1.97062902,6.0768905 C1.80428707,6.0036077 1.62019633,5.96289721 1.42654214,5.96289721 C0.684068894,5.96289721 0.0821753989,6.56132849 0.0821753989,7.29953088 C0.0821753989,8.03773326 0.684068894,8.63616454 1.42654214,8.63616454 C1.62689235,8.63616454 1.81700631,8.59259005 1.98781995,8.51445303 C2.58964556,11.8464158 5.52015936,14.3747784 9.04462038,14.3747784 C12.5551599,14.3747784 15.4764351,11.8663502 16.0941804,8.55389864 C16.2392005,8.60710673 16.3959826,8.63616454 16.5595908,8.63616454 C17.3020641,8.63616454 17.9039575,8.03773326 17.9039575,7.29953088 C17.9039575,6.56132849 17.3020641,5.96289721 16.5595908,5.96289721 C16.4027247,5.96289721 16.2521336,5.98960951 16.1121681,6.03870861 L16.1121681,6.03870861 Z" id="Layer-1"></path>
              <path d="M7.12578103,6.21972387 C7.12578103,5.67107909 6.68428688,5.2263146 6.13967625,5.2263146 C5.59506561,5.2263146 5.15357145,5.67107909 5.15357145,6.21972387" id="Layer-2"></path>
              <path d="M12.7606655,6.21972387 C12.7606655,5.67107909 12.3191714,5.2263146 11.7745607,5.2263146 C11.2299501,5.2263146 10.788456,5.67107909 10.788456,6.21972387" id="Layer-3"></path>
              <path d="M10.9293281,8.63228925 C10.9293281,9.72957882 10.0463398,10.6191078 8.95711849,10.6191078 C7.86789722,10.6191078 6.98490891,9.72957882 6.98490891,8.63228925" id="Layer-4"></path>
              <path d="M9.17944077,2.56840783 C10.1765832,2.11856026 9.67631535,1.1580694 9.03823842,1.15806949 C8.44883419,1.15806957 7.97101371,1.63940575 7.97101371,2.23317593 C7.97101371,2.94571431 8.54439359,3.52331783 9.25166926,3.52331783 C10.1004188,3.52331783 10.788456,2.83018416 10.788456,1.97514754 C10.788456,0.949108336 9.96281613,0.117352655 8.94432131,0.117352655" id="Layer-5"></path>
            </g>
          </g>
        </g>
      </g>
    </g>
  </g>
</svg>
