<?xml version="1.0" encoding="UTF-8"?>
<svg width="33px" height="23px" viewBox="0 0 33 23" version="1.1" xmlns="http://www.w3.org/2000/svg" xmlns:xlink="http://www.w3.org/1999/xlink">
  <path d="M30.6667187,12.2470333 C31.4030875,12.2470333 32.0000625,11.6500602 32.0000625,10.9136895 C32.0000625,10.1773208 31.4030894,9.58034578 30.6667187,9.58034578 L1.33334375,9.58034578 C0.596975,9.58034578 -2.77555756e-15,10.1773189 -2.77555756e-15,10.9136895 C-2.77555756e-15,11.6500583 0.596973125,12.2470333 1.33334375,12.2470333 L30.6667187,12.2470333 Z" id="_388598360"></path>
  <path d="M9.97109375,21.4368458 C10.4917381,21.9574902 11.3358813,21.9574902 11.856525,21.4368458 C12.3771694,20.9162014 12.3771694,20.0720583 11.856525,19.5514145 L3.218775,10.9136645 L11.856525,2.27591453 C12.3771694,1.75527016 12.3771694,0.911127031 11.856525,0.390483281 C11.3358806,-0.130161094 10.4917375,-0.130161094 9.97109375,0.390483281 L0.39840625,9.96317078 L0.39053225,9.97084797 C-0.1301615,10.4915417 -0.1301615,11.3357855 0.39053225,11.8564792 L0.390630675,11.8563808 L9.97106818,21.4368808 L9.97109375,21.4368458 Z" id="_388598288"></path>
</svg>
