<?xml version="1.0" encoding="UTF-8"?>
<svg width="15px" height="20px" viewBox="0 0 15 20" version="1.1" xmlns="http://www.w3.org/2000/svg" xmlns:xlink="http://www.w3.org/1999/xlink">
    <title>Bookmark_3</title>
    <g id="Page-1" stroke="none" stroke-width="1" fill="none" fill-rule="evenodd">
        <g id="bookmark2.inline" fill="#ED4747" fill-rule="nonzero">
            <path d="M13.17125,0 L1.96875,0 C0.77375,0 0,0.8425 0,1.54125 L0,19.28125 C0,19.9825 0.5375,20.2075 1.2,19.78875 L7.5,15.79875 L13.8,19.79 C14.4625,20.20875 15,19.9825 15,19.2825 L15,1.54125 C15,0.61375 14.39125,0 13.17125,0 Z M12.395,7.25375 L9.83875,10.01875 L10.8375,13.3525 C10.9125,13.6025 10.855,13.75 10.70625,13.75 C10.65125,13.75 10.58,13.73 10.5025,13.68375 L7.5,11.9975 L4.53375,13.6825 C4.455,13.7275 4.385,13.75 4.32875,13.75 C4.18,13.75 4.12125,13.60375 4.195,13.3525 L5.16125,10.02 L2.605,7.25375 C2.40375,6.96875 2.50006555,6.7375 2.825,6.7375 L5.7475,6.71875 L7.2,3.985 C7.2825,3.82875 7.39,3.75 7.5,3.75 C7.61,3.75 7.7175,3.82875 7.8,3.985 L9.2525,6.71875 L12.175,6.7375 C12.4999345,6.7375 12.59625,6.96875 12.395,7.25375 Z" id="Bookmark_3"></path>
        </g>
    </g>
</svg>
