<svg width="24" height="24" xmlns="http://www.w3.org/2000/svg">
 <title/>

 <g>
  <title>background</title>
  <rect fill="none" id="canvas_background" height="402" width="582" y="-1" x="-1"/>
 </g>
 <g>
  <title>Layer 1</title>
  <path fill="#ffffff" id="svg_1" d="m21,14l0,6a1,1 0 0 1 -1,1l-16,0a1,1 0 0 1 -1,-1l0,-16a1,1 0 0 1 1,-1l6,0a1,1 0 0 1 0,2l-5,0l0,14l14,0l0,-5a1,1 0 0 1 2,0zm-0.08,-10.38a1,1 0 0 0 -0.92,-0.62l-5,0a1,1 0 0 0 0,2l2.59,0l-6.29,6.29a1,1 0 1 0 1.41,1.41l6.29,-6.29l0,2.59a1,1 0 0 0 2,0l0,-5a1,1 0 0 0 -0.08,-0.38z"/>
 </g>
</svg>