<?xml version="1.0" encoding="UTF-8"?>
<svg width="19px" height="18px" viewBox="0 0 19 18" version="1.1" xmlns="http://www.w3.org/2000/svg" xmlns:xlink="http://www.w3.org/1999/xlink">
    <!-- Generator: Sketch 63.1 (92452) - https://sketch.com -->
    <title>heart</title>
    <desc>Created with Sketch.</desc>
    <g id="Site" stroke="none" stroke-width="1" fill="none" fill-rule="evenodd">
        <g id="About-me" transform="translate(-566.000000, -1373.000000)" fill="#59A5D8" fill-rule="nonzero" stroke="#59A5D8" stroke-width="0.5">
            <g id="Content" transform="translate(330.000000, 1221.000000)">
                <g id="Profile-info">
                    <g id="married" transform="translate(237.000000, 153.000000)">
                        <g id="heart">
                            <path d="M12.1764706,0 C10.7366618,0.00088546651 9.37446807,0.652792491 8.47058824,1.77352941 C7.20185952,0.203556245 5.08153042,-0.396599998 3.17818015,0.275520566 C1.27482988,0.947641129 0.0015365597,2.74617029 -3.69203646e-06,4.76470588 C-0.000325875319,5.0289378 0.0209211704,5.29275528 0.0635294118,5.55352941 C0.847058824,10.4347059 8.47058824,15.8823529 8.47058824,15.8823529 C8.47058824,15.8823529 16.0941176,10.4347059 16.8776471,5.55352941 C16.9202553,5.29275528 16.9415023,5.0289378 16.9411802,4.76470588 C16.9411802,2.13323149 14.807945,0 12.1764706,0 Z M16.3535294,5.46882353 C15.7023529,9.52941176 9.88411765,14.1511765 8.47058824,15.2205882 C7.05705882,14.1511765 1.23882353,9.52941176 0.587647059,5.46352941 C0.549870963,5.23248426 0.530398675,4.9988168 0.529411765,4.76470588 C0.536351437,2.97321782 1.66971756,1.37987134 3.35978713,0.78561341 C5.04985669,0.191355476 6.93101895,0.724741201 8.05764706,2.11764706 L8.47058824,2.64705882 L8.88352941,2.11764706 C10.0101575,0.724741201 11.8913198,0.191355476 13.5813893,0.78561341 C15.2714589,1.37987134 16.404825,2.97321782 16.4117647,4.76470588 C16.4105779,5.00056402 16.3911078,5.23597522 16.3535294,5.46882353 Z" id="Shape"></path>
                        </g>
                    </g>
                </g>
            </g>
        </g>
    </g>
</svg>