<?xml version="1.0" encoding="UTF-8"?>
<svg width="21px" height="20px" viewBox="0 0 21 20" version="1.1" xmlns="http://www.w3.org/2000/svg" xmlns:xlink="http://www.w3.org/1999/xlink">
    <!-- Generator: Sketch 63.1 (92452) - https://sketch.com -->
    <title>school</title>
    <desc>Created with Sketch.</desc>
    <g id="Site" stroke="none" stroke-width="1" fill="none" fill-rule="evenodd">
        <g id="About-me" transform="translate(-565.000000, -1306.000000)" fill="#59A5D8" fill-rule="nonzero" stroke="#59A5D8" stroke-width="0.5">
            <g id="Content" transform="translate(330.000000, 1221.000000)">
                <g id="Profile-info">
                    <g id="education" transform="translate(236.000000, 86.000000)">
                        <g id="school">
                            <path d="M9.50837803,0.222983824 C9.49800053,0.222983824 9.48761315,0.222983824 9.47725606,0.223737709 C9.43105116,0.227206338 9.38623412,0.241106226 9.34617546,0.264392015 L0.39683075,5.4309752 C0.301680598,5.48563558 0.243014059,5.58699522 0.243014059,5.69672811 C0.243014059,5.80646101 0.301680598,5.90782065 0.39683075,5.96248103 L3.53257262,7.77185246 L3.53257262,11.3918231 C3.53279174,11.5013403 3.59143245,11.602418 3.68639763,11.6569679 L5.37188114,12.6295903 L5.37188114,15.0153726 C5.1350785,15.0929749 4.92993988,15.2537505 4.78112427,15.4570915 C4.57088939,15.7443704 4.4531251,16.1191197 4.4531251,16.5272727 L4.4531251,17.7213626 C4.45248112,17.890605 4.5891375,18.0283316 4.75837987,18.029015 L6.59768839,18.029015 C6.7669296,18.0283316 6.9035883,17.890605 6.902942,17.7213626 L6.902942,16.5272727 C6.902942,16.1191197 6.78756948,15.7443704 6.57733807,15.4570915 C6.42814604,15.2532293 6.22235301,15.0921641 5.98478477,15.0147704 L5.98478477,12.9833291 L9.34617546,14.9231881 C9.44129742,14.9783861 9.55870235,14.9783861 9.65382431,14.9231881 L15.3142011,11.6569679 C15.4091663,11.602418 15.467807,11.5013403 15.4680261,11.3918231 L15.4680261,7.77185246 L18.6031703,5.96248103 C18.6983205,5.90782065 18.756987,5.80646101 18.756987,5.69672811 C18.756987,5.58699522 18.6983205,5.48563558 18.6031703,5.4309752 L9.65382431,0.264392015 C9.60955727,0.238678069 9.55955419,0.224462353 9.50838035,0.222983824 L9.50837803,0.222983824 Z M9.50003869,0.882128984 L17.8340858,5.69557566 L9.50003869,10.5078178 L6.29067541,8.65474585 L9.50003869,6.80286692 C9.646378,6.71816438 9.69646197,6.53094164 9.61195964,6.38448662 C9.55447139,6.28456686 9.44577307,6.22536166 9.3306469,6.23126274 C9.28239224,6.23381821 9.23542583,6.2477487 9.19358166,6.27191705 L5.67896362,8.30156301 L1.16598469,5.69552933 L9.50003869,0.882128984 Z M4.14551447,8.12563759 L5.37191937,8.83370587 L5.37191937,11.9215684 L4.14551447,11.2135001 L4.14551447,8.12563759 Z M14.8545619,8.12563759 L14.8545619,11.2135001 L9.50003869,14.3037486 L5.98482299,12.2753072 L5.98482299,9.18744467 L9.34621368,11.1273153 C9.44133564,11.1825132 9.55874057,11.1825132 9.65386253,11.1273153 L14.8545619,8.12563759 Z M5.67956822,15.5768422 C5.82185713,15.5768422 5.95967292,15.6523596 6.08178525,15.8192507 C6.20389874,15.9861071 6.29247185,16.2395306 6.29247185,16.527319 L6.29247185,17.4161542 L5.06606579,17.4161542 L5.06606579,16.527319 C5.06606579,16.2395306 5.15223902,15.9861071 5.2743583,15.8192507 C5.39647063,15.6523943 5.53727815,15.5768422 5.67956822,15.5768422 Z" id="path1000"></path>
                        </g>
                    </g>
                </g>
            </g>
        </g>
    </g>
</svg>