<?xml version="1.0" encoding="UTF-8"?>
<svg width="20px" height="18px" viewBox="0 0 20 18" version="1.1" xmlns="http://www.w3.org/2000/svg" xmlns:xlink="http://www.w3.org/1999/xlink">
  <g id="Site" stroke="none" stroke-width="1" fill="none" fill-rule="evenodd" stroke-linecap="round" stroke-linejoin="round">
    <g id="About-me" transform="translate(-566.000000, -1275.000000)" stroke="#59A5D8">
      <g id="Content" transform="translate(330.000000, 1221.000000)">
        <g id="Profile-info">
          <g id="work" transform="translate(237.000000, 55.000000)">
            <g>
              <path d="M17.2477256,8.0626186 L17.2477256,15.4794977 C17.2477256,15.7111535 17.0581814,15.9007395 16.8264837,15.9007395 L1.17347442,15.9007395 C0.941818605,15.9007395 0.752232558,15.7111953 0.752232558,15.4794977 L0.752232558,8.0626186" id="Path"></path>
              <rect id="Rectangle" x="7.15286512" y="7.73711163" width="3.69426977" height="2.00440465"></rect>
              <path d="M6.05239535,2.07774419 L6.05239535,0.21687907 C6.05239535,0.101009302 6.14716744,0.00627906977 6.26299535,0.00627906977 L11.7370047,0.00627906977 C11.8528326,0.00627906977 11.9476047,0.101051163 11.9476047,0.21687907 L11.9476047,2.07774419" id="Path"></path>
              <path d="M7.15290698,8.60584186 L0.4194,7.97550698 C0.188748837,7.95386512 0,7.74665581 0,7.51504186 L0,2.49894419 C0,2.26728837 0.189544186,2.07770233 0.42124186,2.07770233 L17.5787581,2.07770233 C17.8104558,2.07770233 18,2.26724651 18,2.49894419 L18,7.51504186 C18,7.74665581 17.8112512,7.95386512 17.5805581,7.97550698 L10.8471767,8.60575814" id="Path"></path>
            </g>
          </g>
        </g>
      </g>
    </g>
  </g>
</svg>
